<svg width="25" height="16" viewBox="0 0 25 16" fill="none" xmlns="http://www.w3.org/2000/svg">
<path d="M24.5264 5.28333C24.7168 5.15417 25 5.275 25 5.47917V14C25 15.1042 23.9502 16 22.6562 16H2.34375C1.0498 16 0 15.1042 0 14V5.48333C0 5.275 0.27832 5.15833 0.473633 5.2875C1.56738 6.0125 3.01758 6.93333 7.99805 10.0208C9.02832 10.6625 10.7666 12.0125 12.5 12.0042C14.2432 12.0167 16.0156 10.6375 17.0068 10.0208C21.9873 6.93333 23.4326 6.00833 24.5264 5.28333ZM12.5 10.6667C13.6328 10.6833 15.2637 9.45 16.084 8.94167C22.5635 4.92917 23.0566 4.57917 24.5508 3.57917C24.834 3.39167 25 3.1 25 2.79167V2C25 0.895833 23.9502 0 22.6562 0H2.34375C1.0498 0 0 0.895833 0 2V2.79167C0 3.1 0.166016 3.3875 0.449219 3.57917C1.94336 4.575 2.43652 4.92917 8.91602 8.94167C9.73633 9.45 11.3672 10.6833 12.5 10.6667Z" fill="#BDBDFF"/>
</svg>
