<svg width="22" height="21" viewBox="0 0 22 21" fill="none" xmlns="http://www.w3.org/2000/svg">
<path d="M15.9449 0.854004H6.31287C3.65304 0.854004 1.49683 3.01022 1.49683 5.67004V15.3021C1.49683 17.962 3.65304 20.1182 6.31287 20.1182H15.9449C18.6048 20.1182 20.761 17.962 20.761 15.3021V5.67004C20.761 3.01022 18.6048 0.854004 15.9449 0.854004Z" stroke="white" stroke-width="1.32709" stroke-linecap="round" stroke-linejoin="round"/>
<path d="M14.9816 9.87949C15.1005 10.6811 14.9636 11.4998 14.5903 12.2191C14.2171 12.9385 13.6265 13.5218 12.9027 13.8861C12.1788 14.2505 11.3585 14.3773 10.5584 14.2485C9.75826 14.1198 9.01913 13.742 8.4461 13.169C7.87307 12.596 7.49531 11.8568 7.36656 11.0567C7.23782 10.2566 7.36463 9.43631 7.72898 8.71244C8.09332 7.98857 8.67664 7.39801 9.39596 7.02477C10.1153 6.65153 10.934 6.5146 11.7356 6.63348C12.5533 6.75473 13.3103 7.13575 13.8948 7.72027C14.4793 8.30479 14.8604 9.0618 14.9816 9.87949Z" stroke="white" stroke-width="1.32709" stroke-linecap="round" stroke-linejoin="round"/>
<path d="M16.4266 5.18799H16.4372" stroke="white" stroke-width="1.32709" stroke-linecap="round" stroke-linejoin="round"/>
</svg>
