<svg width="21" height="20" viewBox="0 0 21 20" fill="none" xmlns="http://www.w3.org/2000/svg">
<path d="M14.5639 6.66992C16.0967 6.66992 17.5666 7.27881 18.6505 8.36262C19.7343 9.44644 20.3432 10.9164 20.3432 12.4492V19.1916H16.4903V12.4492C16.4903 11.9383 16.2874 11.4483 15.9261 11.087C15.5648 10.7257 15.0748 10.5228 14.5639 10.5228C14.053 10.5228 13.563 10.7257 13.2017 11.087C12.8405 11.4483 12.6375 11.9383 12.6375 12.4492V19.1916H8.78467V12.4492C8.78467 10.9164 9.39355 9.44644 10.4774 8.36262C11.5612 7.27881 13.0312 6.66992 14.5639 6.66992Z" stroke="white" stroke-width="1.32709" stroke-linecap="round" stroke-linejoin="round"/>
<path d="M4.93193 7.63281H1.0791V19.1913H4.93193V7.63281Z" stroke="white" stroke-width="1.32709" stroke-linecap="round" stroke-linejoin="round"/>
<path d="M3.00552 4.74346C4.06945 4.74346 4.93193 3.88097 4.93193 2.81704C4.93193 1.75311 4.06945 0.890625 3.00552 0.890625C1.94159 0.890625 1.0791 1.75311 1.0791 2.81704C1.0791 3.88097 1.94159 4.74346 3.00552 4.74346Z" stroke="white" stroke-width="1.32709" stroke-linecap="round" stroke-linejoin="round"/>
</svg>
