<svg width="378" height="62" viewBox="0 0 378 62" fill="none" xmlns="http://www.w3.org/2000/svg">
<rect width="378" height="62" rx="4" fill="url(#paint0_linear_2_4929)"/>
<rect x="0.5" y="0.5" width="377" height="61" rx="3.5" stroke="white" stroke-opacity="0.58"/>
<path d="M140.28 27.182C140.22 27.284 140.157 27.359 140.091 27.407C140.025 27.455 139.941 27.479 139.839 27.479C139.731 27.479 139.608 27.431 139.47 27.335C139.332 27.233 139.158 27.122 138.948 27.002C138.744 26.876 138.498 26.765 138.21 26.669C137.922 26.567 137.577 26.516 137.175 26.516C136.797 26.516 136.464 26.567 136.176 26.669C135.894 26.765 135.657 26.9 135.465 27.074C135.273 27.242 135.126 27.443 135.024 27.677C134.928 27.905 134.88 28.154 134.88 28.424C134.88 28.772 134.967 29.06 135.141 29.288C135.321 29.516 135.555 29.711 135.843 29.873C136.131 30.035 136.458 30.176 136.824 30.296C137.19 30.416 137.565 30.542 137.949 30.674C138.333 30.8 138.708 30.947 139.074 31.115C139.44 31.283 139.767 31.496 140.055 31.754C140.343 32.006 140.574 32.318 140.748 32.69C140.928 33.056 141.018 33.506 141.018 34.04C141.018 34.61 140.919 35.144 140.721 35.642C140.529 36.14 140.247 36.575 139.875 36.947C139.503 37.319 139.044 37.613 138.498 37.829C137.958 38.039 137.343 38.144 136.653 38.144C136.239 38.144 135.837 38.102 135.447 38.018C135.057 37.94 134.688 37.829 134.34 37.685C133.992 37.535 133.665 37.358 133.359 37.154C133.059 36.944 132.789 36.71 132.549 36.452L133.098 35.534C133.152 35.462 133.215 35.402 133.287 35.354C133.365 35.306 133.452 35.282 133.548 35.282C133.674 35.282 133.818 35.348 133.98 35.48C134.148 35.612 134.352 35.759 134.592 35.921C134.838 36.077 135.129 36.221 135.465 36.353C135.807 36.485 136.221 36.551 136.707 36.551C137.103 36.551 137.457 36.5 137.769 36.398C138.081 36.29 138.342 36.14 138.552 35.948C138.768 35.75 138.933 35.513 139.047 35.237C139.161 34.961 139.218 34.655 139.218 34.319C139.218 33.941 139.131 33.632 138.957 33.392C138.783 33.152 138.552 32.951 138.264 32.789C137.976 32.627 137.649 32.489 137.283 32.375C136.917 32.261 136.542 32.144 136.158 32.024C135.774 31.898 135.399 31.754 135.033 31.592C134.667 31.43 134.34 31.22 134.052 30.962C133.764 30.698 133.533 30.371 133.359 29.981C133.185 29.585 133.098 29.099 133.098 28.523C133.098 28.061 133.188 27.614 133.368 27.182C133.548 26.75 133.809 26.369 134.151 26.039C134.499 25.703 134.925 25.436 135.429 25.238C135.933 25.034 136.509 24.932 137.157 24.932C137.883 24.932 138.549 25.049 139.155 25.283C139.767 25.511 140.298 25.841 140.748 26.273L140.28 27.182ZM149.028 32.411C149.028 32.063 148.977 31.742 148.875 31.448C148.779 31.154 148.635 30.899 148.443 30.683C148.251 30.467 148.017 30.299 147.741 30.179C147.465 30.059 147.147 29.999 146.787 29.999C146.049 29.999 145.467 30.212 145.041 30.638C144.621 31.064 144.354 31.655 144.24 32.411H149.028ZM150.477 36.695C150.261 36.947 150.012 37.166 149.73 37.352C149.448 37.532 149.148 37.679 148.83 37.793C148.512 37.907 148.182 37.991 147.84 38.045C147.504 38.099 147.171 38.126 146.841 38.126C146.211 38.126 145.626 38.021 145.086 37.811C144.552 37.595 144.087 37.283 143.691 36.875C143.301 36.461 142.995 35.951 142.773 35.345C142.557 34.733 142.449 34.031 142.449 33.239C142.449 32.603 142.548 32.012 142.746 31.466C142.944 30.914 143.226 30.434 143.592 30.026C143.964 29.618 144.417 29.297 144.951 29.063C145.485 28.829 146.085 28.712 146.751 28.712C147.309 28.712 147.822 28.805 148.29 28.991C148.764 29.171 149.172 29.435 149.514 29.783C149.856 30.131 150.123 30.56 150.315 31.07C150.513 31.58 150.612 32.162 150.612 32.816C150.612 33.086 150.582 33.269 150.522 33.365C150.462 33.455 150.351 33.5 150.189 33.5H144.195C144.213 34.046 144.291 34.523 144.429 34.931C144.567 35.333 144.756 35.669 144.996 35.939C145.242 36.209 145.533 36.41 145.869 36.542C146.205 36.674 146.58 36.74 146.994 36.74C147.384 36.74 147.72 36.695 148.002 36.605C148.29 36.515 148.536 36.419 148.74 36.317C148.95 36.209 149.124 36.11 149.262 36.02C149.406 35.93 149.532 35.885 149.64 35.885C149.784 35.885 149.895 35.939 149.973 36.047L150.477 36.695ZM154.146 30.125C154.344 29.915 154.551 29.723 154.767 29.549C154.983 29.375 155.211 29.228 155.451 29.108C155.697 28.982 155.958 28.886 156.234 28.82C156.516 28.748 156.816 28.712 157.134 28.712C157.638 28.712 158.079 28.796 158.457 28.964C158.841 29.132 159.162 29.369 159.42 29.675C159.678 29.975 159.873 30.338 160.005 30.764C160.137 31.19 160.203 31.661 160.203 32.177V38H158.439V32.177C158.439 31.523 158.289 31.016 157.989 30.656C157.689 30.29 157.23 30.107 156.612 30.107C156.162 30.107 155.739 30.215 155.343 30.431C154.953 30.641 154.59 30.929 154.254 31.295V38H152.499V28.856H153.552C153.798 28.856 153.951 28.973 154.011 29.207L154.146 30.125ZM168.466 31.07C168.178 30.692 167.866 30.428 167.53 30.278C167.2 30.128 166.828 30.053 166.414 30.053C165.61 30.053 164.986 30.344 164.542 30.926C164.104 31.502 163.885 32.345 163.885 33.455C163.885 34.037 163.933 34.535 164.029 34.949C164.131 35.357 164.275 35.693 164.461 35.957C164.653 36.215 164.887 36.407 165.163 36.533C165.439 36.653 165.751 36.713 166.099 36.713C166.609 36.713 167.05 36.599 167.422 36.371C167.794 36.143 168.142 35.822 168.466 35.408V31.07ZM170.23 24.716V38H169.168C168.922 38 168.769 37.883 168.709 37.649L168.556 36.596C168.166 37.058 167.722 37.43 167.224 37.712C166.732 37.988 166.162 38.126 165.514 38.126C164.992 38.126 164.518 38.024 164.092 37.82C163.672 37.616 163.312 37.319 163.012 36.929C162.712 36.533 162.481 36.044 162.319 35.462C162.157 34.88 162.076 34.211 162.076 33.455C162.076 32.777 162.166 32.147 162.346 31.565C162.526 30.983 162.787 30.479 163.129 30.053C163.471 29.627 163.885 29.294 164.371 29.054C164.857 28.808 165.406 28.685 166.018 28.685C166.57 28.685 167.038 28.775 167.422 28.955C167.812 29.135 168.16 29.39 168.466 29.72V24.716H170.23ZM191.181 25.076V38H189.507V28.802C189.507 28.664 189.51 28.517 189.516 28.361C189.528 28.205 189.54 28.046 189.552 27.884L185.25 35.777C185.1 36.071 184.869 36.218 184.557 36.218H184.287C183.975 36.218 183.747 36.071 183.603 35.777L179.22 27.857C179.256 28.193 179.274 28.508 179.274 28.802V38H177.591V25.076H179.013C179.181 25.076 179.31 25.094 179.4 25.13C179.496 25.16 179.586 25.25 179.67 25.4L183.99 33.14C184.074 33.296 184.152 33.461 184.224 33.635C184.296 33.809 184.365 33.983 184.431 34.157C184.557 33.803 184.704 33.461 184.872 33.131L189.111 25.4C189.189 25.25 189.273 25.16 189.363 25.13C189.459 25.094 189.591 25.076 189.759 25.076H191.181ZM199.794 32.411C199.794 32.063 199.743 31.742 199.641 31.448C199.545 31.154 199.401 30.899 199.209 30.683C199.017 30.467 198.783 30.299 198.507 30.179C198.231 30.059 197.913 29.999 197.553 29.999C196.815 29.999 196.233 30.212 195.807 30.638C195.387 31.064 195.12 31.655 195.006 32.411H199.794ZM201.243 36.695C201.027 36.947 200.778 37.166 200.496 37.352C200.214 37.532 199.914 37.679 199.596 37.793C199.278 37.907 198.948 37.991 198.606 38.045C198.27 38.099 197.937 38.126 197.607 38.126C196.977 38.126 196.392 38.021 195.852 37.811C195.318 37.595 194.853 37.283 194.457 36.875C194.067 36.461 193.761 35.951 193.539 35.345C193.323 34.733 193.215 34.031 193.215 33.239C193.215 32.603 193.314 32.012 193.512 31.466C193.71 30.914 193.992 30.434 194.358 30.026C194.73 29.618 195.183 29.297 195.717 29.063C196.251 28.829 196.851 28.712 197.517 28.712C198.075 28.712 198.588 28.805 199.056 28.991C199.53 29.171 199.938 29.435 200.28 29.783C200.622 30.131 200.889 30.56 201.081 31.07C201.279 31.58 201.378 32.162 201.378 32.816C201.378 33.086 201.348 33.269 201.288 33.365C201.228 33.455 201.117 33.5 200.955 33.5H194.961C194.979 34.046 195.057 34.523 195.195 34.931C195.333 35.333 195.522 35.669 195.762 35.939C196.008 36.209 196.299 36.41 196.635 36.542C196.971 36.674 197.346 36.74 197.76 36.74C198.15 36.74 198.486 36.695 198.768 36.605C199.056 36.515 199.302 36.419 199.506 36.317C199.716 36.209 199.89 36.11 200.028 36.02C200.172 35.93 200.298 35.885 200.406 35.885C200.55 35.885 200.661 35.939 200.739 36.047L201.243 36.695ZM208.655 30.431C208.607 30.509 208.556 30.566 208.502 30.602C208.448 30.632 208.379 30.647 208.295 30.647C208.199 30.647 208.091 30.614 207.971 30.548C207.857 30.482 207.716 30.41 207.548 30.332C207.386 30.254 207.194 30.182 206.972 30.116C206.75 30.05 206.486 30.017 206.18 30.017C205.928 30.017 205.697 30.05 205.487 30.116C205.283 30.176 205.109 30.263 204.965 30.377C204.821 30.485 204.71 30.617 204.632 30.773C204.554 30.923 204.515 31.085 204.515 31.259C204.515 31.487 204.581 31.676 204.713 31.826C204.851 31.976 205.028 32.105 205.244 32.213C205.466 32.321 205.715 32.42 205.991 32.51C206.273 32.594 206.558 32.684 206.846 32.78C207.14 32.876 207.425 32.987 207.701 33.113C207.983 33.233 208.232 33.386 208.448 33.572C208.67 33.752 208.847 33.971 208.979 34.229C209.117 34.487 209.186 34.802 209.186 35.174C209.186 35.6 209.108 35.996 208.952 36.362C208.802 36.722 208.577 37.034 208.277 37.298C207.983 37.562 207.617 37.769 207.179 37.919C206.741 38.069 206.24 38.144 205.676 38.144C205.046 38.144 204.464 38.039 203.93 37.829C203.396 37.619 202.949 37.352 202.589 37.028L203.003 36.353C203.051 36.269 203.111 36.206 203.183 36.164C203.255 36.116 203.351 36.092 203.471 36.092C203.585 36.092 203.702 36.134 203.822 36.218C203.942 36.302 204.086 36.395 204.254 36.497C204.422 36.593 204.626 36.683 204.866 36.767C205.106 36.845 205.406 36.884 205.766 36.884C206.066 36.884 206.327 36.848 206.549 36.776C206.771 36.698 206.954 36.596 207.098 36.47C207.248 36.338 207.359 36.188 207.431 36.02C207.503 35.852 207.539 35.675 207.539 35.489C207.539 35.249 207.47 35.051 207.332 34.895C207.2 34.733 207.023 34.595 206.801 34.481C206.585 34.367 206.336 34.268 206.054 34.184C205.772 34.1 205.484 34.01 205.19 33.914C204.896 33.818 204.608 33.707 204.326 33.581C204.044 33.455 203.792 33.296 203.57 33.104C203.354 32.912 203.177 32.678 203.039 32.402C202.907 32.126 202.841 31.79 202.841 31.394C202.841 31.04 202.913 30.701 203.057 30.377C203.207 30.053 203.42 29.768 203.696 29.522C203.978 29.276 204.323 29.081 204.731 28.937C205.145 28.787 205.616 28.712 206.144 28.712C206.75 28.712 207.296 28.808 207.782 29C208.274 29.192 208.694 29.456 209.042 29.792L208.655 30.431ZM216.478 30.431C216.43 30.509 216.379 30.566 216.325 30.602C216.271 30.632 216.202 30.647 216.118 30.647C216.022 30.647 215.914 30.614 215.794 30.548C215.68 30.482 215.539 30.41 215.371 30.332C215.209 30.254 215.017 30.182 214.795 30.116C214.573 30.05 214.309 30.017 214.003 30.017C213.751 30.017 213.52 30.05 213.31 30.116C213.106 30.176 212.932 30.263 212.788 30.377C212.644 30.485 212.533 30.617 212.455 30.773C212.377 30.923 212.338 31.085 212.338 31.259C212.338 31.487 212.404 31.676 212.536 31.826C212.674 31.976 212.851 32.105 213.067 32.213C213.289 32.321 213.538 32.42 213.814 32.51C214.096 32.594 214.381 32.684 214.669 32.78C214.963 32.876 215.248 32.987 215.524 33.113C215.806 33.233 216.055 33.386 216.271 33.572C216.493 33.752 216.67 33.971 216.802 34.229C216.94 34.487 217.009 34.802 217.009 35.174C217.009 35.6 216.931 35.996 216.775 36.362C216.625 36.722 216.4 37.034 216.1 37.298C215.806 37.562 215.44 37.769 215.002 37.919C214.564 38.069 214.063 38.144 213.499 38.144C212.869 38.144 212.287 38.039 211.753 37.829C211.219 37.619 210.772 37.352 210.412 37.028L210.826 36.353C210.874 36.269 210.934 36.206 211.006 36.164C211.078 36.116 211.174 36.092 211.294 36.092C211.408 36.092 211.525 36.134 211.645 36.218C211.765 36.302 211.909 36.395 212.077 36.497C212.245 36.593 212.449 36.683 212.689 36.767C212.929 36.845 213.229 36.884 213.589 36.884C213.889 36.884 214.15 36.848 214.372 36.776C214.594 36.698 214.777 36.596 214.921 36.47C215.071 36.338 215.182 36.188 215.254 36.02C215.326 35.852 215.362 35.675 215.362 35.489C215.362 35.249 215.293 35.051 215.155 34.895C215.023 34.733 214.846 34.595 214.624 34.481C214.408 34.367 214.159 34.268 213.877 34.184C213.595 34.1 213.307 34.01 213.013 33.914C212.719 33.818 212.431 33.707 212.149 33.581C211.867 33.455 211.615 33.296 211.393 33.104C211.177 32.912 211 32.678 210.862 32.402C210.73 32.126 210.664 31.79 210.664 31.394C210.664 31.04 210.736 30.701 210.88 30.377C211.03 30.053 211.243 29.768 211.519 29.522C211.801 29.276 212.146 29.081 212.554 28.937C212.968 28.787 213.439 28.712 213.967 28.712C214.573 28.712 215.119 28.808 215.605 29C216.097 29.192 216.517 29.456 216.865 29.792L216.478 30.431ZM223.823 33.941C223.109 33.965 222.503 34.022 222.005 34.112C221.507 34.196 221.102 34.31 220.79 34.454C220.478 34.598 220.253 34.769 220.115 34.967C219.977 35.159 219.908 35.375 219.908 35.615C219.908 35.843 219.944 36.041 220.016 36.209C220.094 36.371 220.196 36.506 220.322 36.614C220.454 36.716 220.607 36.791 220.781 36.839C220.955 36.887 221.144 36.911 221.348 36.911C221.618 36.911 221.864 36.884 222.086 36.83C222.314 36.776 222.527 36.701 222.725 36.605C222.923 36.503 223.112 36.38 223.292 36.236C223.472 36.092 223.649 35.927 223.823 35.741V33.941ZM218.675 30.134C219.185 29.648 219.737 29.285 220.331 29.045C220.931 28.805 221.588 28.685 222.302 28.685C222.824 28.685 223.286 28.772 223.688 28.946C224.09 29.114 224.429 29.351 224.705 29.657C224.981 29.963 225.188 30.329 225.326 30.755C225.47 31.181 225.542 31.652 225.542 32.168V38H224.759C224.585 38 224.453 37.973 224.363 37.919C224.273 37.859 224.201 37.751 224.147 37.595L223.958 36.794C223.724 37.01 223.493 37.202 223.265 37.37C223.037 37.532 222.797 37.673 222.545 37.793C222.299 37.907 222.035 37.994 221.753 38.054C221.471 38.114 221.159 38.144 220.817 38.144C220.457 38.144 220.118 38.096 219.8 38C219.488 37.898 219.215 37.745 218.981 37.541C218.747 37.337 218.561 37.082 218.423 36.776C218.291 36.47 218.225 36.113 218.225 35.705C218.225 35.345 218.321 35 218.513 34.67C218.711 34.334 219.029 34.034 219.467 33.77C219.911 33.506 220.487 33.29 221.195 33.122C221.909 32.954 222.785 32.858 223.823 32.834V32.168C223.823 31.478 223.676 30.962 223.382 30.62C223.088 30.278 222.656 30.107 222.086 30.107C221.702 30.107 221.378 30.155 221.114 30.251C220.856 30.347 220.631 30.455 220.439 30.575C220.253 30.689 220.088 30.794 219.944 30.89C219.806 30.986 219.662 31.034 219.512 31.034C219.392 31.034 219.287 31.001 219.197 30.935C219.113 30.869 219.044 30.791 218.99 30.701L218.675 30.134ZM231.104 33.437C231.416 33.437 231.689 33.395 231.923 33.311C232.163 33.227 232.361 33.11 232.517 32.96C232.679 32.804 232.799 32.618 232.877 32.402C232.961 32.186 233.003 31.949 233.003 31.691C233.003 31.163 232.841 30.743 232.517 30.431C232.199 30.113 231.728 29.954 231.104 29.954C230.486 29.954 230.015 30.113 229.691 30.431C229.373 30.743 229.214 31.163 229.214 31.691C229.214 31.949 229.253 32.186 229.331 32.402C229.415 32.612 229.535 32.795 229.691 32.951C229.853 33.101 230.051 33.221 230.285 33.311C230.525 33.395 230.798 33.437 231.104 33.437ZM233.903 38.477C233.903 38.261 233.843 38.09 233.723 37.964C233.603 37.832 233.438 37.73 233.228 37.658C233.024 37.58 232.784 37.526 232.508 37.496C232.232 37.46 231.941 37.433 231.635 37.415C231.335 37.397 231.026 37.382 230.708 37.37C230.39 37.352 230.084 37.322 229.79 37.28C229.478 37.436 229.22 37.625 229.016 37.847C228.818 38.069 228.719 38.33 228.719 38.63C228.719 38.822 228.767 39.002 228.863 39.17C228.965 39.338 229.118 39.482 229.322 39.602C229.532 39.728 229.793 39.824 230.105 39.89C230.423 39.962 230.801 39.998 231.239 39.998C231.671 39.998 232.052 39.959 232.382 39.881C232.712 39.809 232.988 39.704 233.21 39.566C233.438 39.434 233.609 39.275 233.723 39.089C233.843 38.903 233.903 38.699 233.903 38.477ZM235.685 29.198V29.855C235.685 30.071 235.55 30.206 235.28 30.26L234.299 30.404C234.383 30.59 234.449 30.788 234.497 30.998C234.545 31.202 234.569 31.418 234.569 31.646C234.569 32.096 234.482 32.504 234.308 32.87C234.134 33.23 233.894 33.539 233.588 33.797C233.282 34.055 232.916 34.253 232.49 34.391C232.07 34.529 231.608 34.598 231.104 34.598C230.69 34.598 230.303 34.553 229.943 34.463C229.763 34.571 229.625 34.691 229.529 34.823C229.439 34.949 229.394 35.075 229.394 35.201C229.394 35.411 229.481 35.567 229.655 35.669C229.835 35.771 230.066 35.846 230.348 35.894C230.636 35.936 230.963 35.963 231.329 35.975C231.701 35.987 232.076 36.008 232.454 36.038C232.838 36.062 233.213 36.11 233.579 36.182C233.951 36.248 234.278 36.359 234.56 36.515C234.848 36.665 235.079 36.875 235.253 37.145C235.433 37.409 235.523 37.754 235.523 38.18C235.523 38.576 235.424 38.96 235.226 39.332C235.034 39.704 234.752 40.034 234.38 40.322C234.008 40.61 233.555 40.841 233.021 41.015C232.487 41.189 231.881 41.276 231.203 41.276C230.525 41.276 229.934 41.21 229.43 41.078C228.932 40.946 228.515 40.769 228.179 40.547C227.849 40.325 227.6 40.067 227.432 39.773C227.27 39.479 227.189 39.173 227.189 38.855C227.189 38.411 227.327 38.036 227.603 37.73C227.879 37.418 228.26 37.175 228.746 37.001C228.482 36.881 228.272 36.719 228.116 36.515C227.96 36.305 227.882 36.029 227.882 35.687C227.882 35.555 227.906 35.42 227.954 35.282C228.002 35.138 228.074 34.997 228.17 34.859C228.272 34.715 228.395 34.58 228.539 34.454C228.689 34.328 228.86 34.214 229.052 34.112C228.602 33.86 228.248 33.527 227.99 33.113C227.732 32.693 227.603 32.204 227.603 31.646C227.603 31.196 227.69 30.791 227.864 30.431C228.038 30.071 228.278 29.762 228.584 29.504C228.896 29.246 229.265 29.048 229.691 28.91C230.123 28.772 230.594 28.703 231.104 28.703C231.896 28.703 232.577 28.868 233.147 29.198H235.685ZM243.212 32.411C243.212 32.063 243.161 31.742 243.059 31.448C242.963 31.154 242.819 30.899 242.627 30.683C242.435 30.467 242.201 30.299 241.925 30.179C241.649 30.059 241.331 29.999 240.971 29.999C240.233 29.999 239.651 30.212 239.225 30.638C238.805 31.064 238.538 31.655 238.424 32.411H243.212ZM244.661 36.695C244.445 36.947 244.196 37.166 243.914 37.352C243.632 37.532 243.332 37.679 243.014 37.793C242.696 37.907 242.366 37.991 242.024 38.045C241.688 38.099 241.355 38.126 241.025 38.126C240.395 38.126 239.81 38.021 239.27 37.811C238.736 37.595 238.271 37.283 237.875 36.875C237.485 36.461 237.179 35.951 236.957 35.345C236.741 34.733 236.633 34.031 236.633 33.239C236.633 32.603 236.732 32.012 236.93 31.466C237.128 30.914 237.41 30.434 237.776 30.026C238.148 29.618 238.601 29.297 239.135 29.063C239.669 28.829 240.269 28.712 240.935 28.712C241.493 28.712 242.006 28.805 242.474 28.991C242.948 29.171 243.356 29.435 243.698 29.783C244.04 30.131 244.307 30.56 244.499 31.07C244.697 31.58 244.796 32.162 244.796 32.816C244.796 33.086 244.766 33.269 244.706 33.365C244.646 33.455 244.535 33.5 244.373 33.5H238.379C238.397 34.046 238.475 34.523 238.613 34.931C238.751 35.333 238.94 35.669 239.18 35.939C239.426 36.209 239.717 36.41 240.053 36.542C240.389 36.674 240.764 36.74 241.178 36.74C241.568 36.74 241.904 36.695 242.186 36.605C242.474 36.515 242.72 36.419 242.924 36.317C243.134 36.209 243.308 36.11 243.446 36.02C243.59 35.93 243.716 35.885 243.824 35.885C243.968 35.885 244.079 35.939 244.157 36.047L244.661 36.695Z" fill="white"/>
<defs>
<linearGradient id="paint0_linear_2_4929" x1="401.515" y1="-101.283" x2="22.502" y2="198.96" gradientUnits="userSpaceOnUse">
<stop offset="0.250204"/>
<stop offset="0.408636" stop-color="#052275"/>
<stop offset="0.613316" stop-color="#052275"/>
<stop offset="0.851468"/>
</linearGradient>
</defs>
</svg>
