<svg width="23" height="19" viewBox="0 0 23 19" fill="none" xmlns="http://www.w3.org/2000/svg">
<path d="M21.9251 0.82658C21.0027 1.47721 19.9814 1.97483 18.9006 2.30029C18.3205 1.63328 17.5495 1.16052 16.692 0.945947C15.8345 0.731377 14.9317 0.785351 14.1058 1.10057C13.28 1.41579 12.5708 1.97704 12.0743 2.70842C11.5778 3.43979 11.3179 4.30601 11.3298 5.18991V6.15312C9.63708 6.19701 7.95978 5.8216 6.44729 5.06031C4.9348 4.29902 3.63406 3.17549 2.66091 1.78979C2.66091 1.78979 -1.19192 10.4587 7.47695 14.3115C5.49325 15.658 3.13015 16.3332 0.734497 16.2379C9.40337 21.0539 19.9987 16.2379 19.9987 5.16102C19.9978 4.89272 19.972 4.62508 19.9216 4.36155C20.9047 3.39208 21.5984 2.16805 21.9251 0.82658Z" stroke="white" stroke-width="1.32709" stroke-linecap="round" stroke-linejoin="round"/>
</svg>
