<svg width="24" height="17" viewBox="0 0 24 17" fill="none" xmlns="http://www.w3.org/2000/svg">
<path d="M22.1382 3.07462C22.0238 2.61749 21.7907 2.19865 21.4626 1.8604C21.1346 1.52216 20.723 1.27648 20.2696 1.1482C18.6128 0.743652 11.986 0.743652 11.986 0.743652C11.986 0.743652 5.35911 0.743652 3.70239 1.18673C3.24895 1.31501 2.8374 1.56068 2.50931 1.89893C2.18121 2.23718 1.94818 2.65602 1.83376 3.11314C1.53056 4.79448 1.38225 6.50008 1.39069 8.20851C1.37988 9.92981 1.5282 11.6484 1.83376 13.3424C1.9599 13.7853 2.19815 14.1883 2.52549 14.5122C2.85282 14.8362 3.25818 15.0702 3.70239 15.1918C5.35911 15.6348 11.986 15.6348 11.986 15.6348C11.986 15.6348 18.6128 15.6348 20.2696 15.1918C20.723 15.0635 21.1346 14.8178 21.4626 14.4796C21.7907 14.1413 22.0238 13.7225 22.1382 13.2654C22.4391 11.5967 22.5874 9.90408 22.5813 8.20851C22.5921 6.48722 22.4438 4.76861 22.1382 3.07462Z" stroke="white" stroke-width="1.32709" stroke-linecap="round" stroke-linejoin="round"/>
<path d="M9.81885 11.358L15.3573 8.20828L9.81885 5.05859V11.358Z" stroke="white" stroke-width="1.32709" stroke-linecap="round" stroke-linejoin="round"/>
</svg>
