<svg width="553" height="357" viewBox="0 0 553 357" fill="none" xmlns="http://www.w3.org/2000/svg">
<ellipse opacity="0.4" cx="519.31" cy="6.57644" rx="1.16176" ry="1.44278" fill="white"/>
<ellipse opacity="0.4" cx="551.838" cy="63.5663" rx="1.16176" ry="1.44278" fill="white"/>
<ellipse opacity="0.4" cx="489.103" cy="67.174" rx="1.16176" ry="1.44278" fill="white"/>
<ellipse opacity="0.4" cx="399.067" cy="57.0733" rx="1.16176" ry="1.44278" fill="white"/>
<ellipse opacity="0.4" cx="339.817" cy="20.2829" rx="1.16176" ry="1.44278" fill="white"/>
<ellipse opacity="0.4" cx="350.273" cy="98.9142" rx="1.16176" ry="1.44278" fill="white"/>
<ellipse opacity="0.4" cx="352.597" cy="154.461" rx="1.16176" ry="1.44278" fill="white"/>
<ellipse opacity="0.4" cx="299.736" cy="220.108" rx="1.16176" ry="1.44278" fill="white"/>
<ellipse opacity="0.4" cx="369.443" cy="199.188" rx="1.16176" ry="1.44278" fill="white"/>
<ellipse opacity="0.4" cx="430.434" cy="250.405" rx="1.16176" ry="1.44278" fill="white"/>
<ellipse opacity="0.4" cx="477.486" cy="275.655" rx="1.16176" ry="1.44278" fill="white"/>
<ellipse opacity="0.4" cx="516.985" cy="241.749" rx="1.16176" ry="1.44278" fill="white"/>
<ellipse opacity="0.4" cx="549.515" cy="253.292" rx="1.16176" ry="1.44278" fill="white"/>
<ellipse opacity="0.4" cx="521.633" cy="153.019" rx="1.16176" ry="1.44278" fill="white"/>
<ellipse opacity="0.4" cx="33.6898" cy="355.008" rx="1.16176" ry="1.44278" transform="rotate(-180 33.6898 355.008)" fill="white"/>
<ellipse opacity="0.4" cx="1.16172" cy="298.018" rx="1.16176" ry="1.44278" transform="rotate(-180 1.16172 298.018)" fill="white"/>
<ellipse opacity="0.4" cx="63.8963" cy="294.411" rx="1.16176" ry="1.44278" transform="rotate(-180 63.8963 294.411)" fill="white"/>
<ellipse opacity="0.4" cx="153.933" cy="304.511" rx="1.16176" ry="1.44278" transform="rotate(-180 153.933 304.511)" fill="white"/>
<ellipse opacity="0.4" cx="195.757" cy="341.301" rx="1.16176" ry="1.44278" transform="rotate(-180 195.757 341.301)" fill="white"/>
<ellipse opacity="0.4" cx="202.727" cy="262.67" rx="1.16176" ry="1.44278" transform="rotate(-180 202.727 262.67)" fill="white"/>
<ellipse opacity="0.4" cx="200.403" cy="207.123" rx="1.16176" ry="1.44278" transform="rotate(-180 200.403 207.123)" fill="white"/>
<ellipse opacity="0.4" cx="253.263" cy="141.477" rx="1.16176" ry="1.44278" transform="rotate(-180 253.263 141.477)" fill="white"/>
<ellipse opacity="0.4" cx="183.557" cy="162.397" rx="1.16176" ry="1.44278" transform="rotate(-180 183.557 162.397)" fill="white"/>
<ellipse opacity="0.4" cx="173.104" cy="77.9952" rx="1.16176" ry="1.44278" transform="rotate(-180 173.104 77.9952)" fill="white"/>
<ellipse opacity="0.4" cx="122.565" cy="111.178" rx="1.16176" ry="1.44278" transform="rotate(-180 122.565 111.178)" fill="white"/>
<ellipse opacity="0.4" cx="75.5145" cy="85.9297" rx="1.16176" ry="1.44278" transform="rotate(-180 75.5145 85.9297)" fill="white"/>
<ellipse opacity="0.4" cx="36.0148" cy="119.836" rx="1.16176" ry="1.44278" transform="rotate(-180 36.0148 119.836)" fill="white"/>
<ellipse opacity="0.4" cx="3.48423" cy="108.293" rx="1.16176" ry="1.44278" transform="rotate(-180 3.48423 108.293)" fill="white"/>
<ellipse opacity="0.4" cx="31.3666" cy="208.566" rx="1.16176" ry="1.44278" transform="rotate(-180 31.3666 208.566)" fill="white"/>
<ellipse opacity="0.4" cx="170.091" cy="278.456" rx="1.16176" ry="1.44278" transform="rotate(-180 170.091 278.456)" fill="white"/>
<ellipse opacity="0.4" cx="137.563" cy="221.466" rx="1.16176" ry="1.44278" transform="rotate(-180 137.563 221.466)" fill="white"/>
<ellipse opacity="0.4" cx="200.298" cy="217.859" rx="1.16176" ry="1.44278" transform="rotate(-180 200.298 217.859)" fill="white"/>
<ellipse opacity="0.4" cx="290.335" cy="227.959" rx="1.16176" ry="1.44278" transform="rotate(-180 290.335 227.959)" fill="white"/>
<ellipse opacity="0.4" cx="332.159" cy="264.749" rx="1.16176" ry="1.44278" transform="rotate(-180 332.159 264.749)" fill="white"/>
<ellipse opacity="0.4" cx="339.129" cy="186.118" rx="1.16176" ry="1.44278" transform="rotate(-180 339.129 186.118)" fill="white"/>
<ellipse opacity="0.4" cx="336.804" cy="130.571" rx="1.16176" ry="1.44278" transform="rotate(-180 336.804 130.571)" fill="white"/>
<ellipse opacity="0.4" cx="389.665" cy="64.9247" rx="1.16176" ry="1.44278" transform="rotate(-180 389.665 64.9247)" fill="white"/>
<ellipse opacity="0.4" cx="319.958" cy="85.8446" rx="1.16176" ry="1.44278" transform="rotate(-180 319.958 85.8446)" fill="white"/>
<ellipse opacity="0.4" cx="309.505" cy="1.4426" rx="1.16176" ry="1.44278" transform="rotate(-180 309.505 1.4426)" fill="white"/>
<ellipse opacity="0.4" cx="258.967" cy="34.6258" rx="1.16176" ry="1.44278" transform="rotate(-180 258.967 34.6258)" fill="white"/>
<ellipse opacity="0.4" cx="211.916" cy="9.37753" rx="1.16176" ry="1.44278" transform="rotate(-180 211.916 9.37753)" fill="white"/>
<ellipse opacity="0.4" cx="172.416" cy="43.2835" rx="1.16176" ry="1.44278" transform="rotate(-180 172.416 43.2835)" fill="white"/>
<ellipse opacity="0.4" cx="139.886" cy="31.7409" rx="1.16176" ry="1.44278" transform="rotate(-180 139.886 31.7409)" fill="white"/>
<ellipse opacity="0.4" cx="167.768" cy="132.014" rx="1.16176" ry="1.44278" transform="rotate(-180 167.768 132.014)" fill="white"/>
</svg>
