<svg width="716" height="527" viewBox="0 0 716 527" fill="none" xmlns="http://www.w3.org/2000/svg">
<ellipse opacity="0.4" cx="682.175" cy="9.71938" rx="1.16593" ry="2.13246" fill="white"/>
<ellipse opacity="0.4" cx="714.82" cy="93.9518" rx="1.16593" ry="2.13246" fill="white"/>
<ellipse opacity="0.4" cx="651.86" cy="99.2833" rx="1.16593" ry="2.13246" fill="white"/>
<ellipse opacity="0.4" cx="561.5" cy="84.3551" rx="1.16593" ry="2.13246" fill="white"/>
<ellipse opacity="0.4" cx="502.038" cy="29.9782" rx="1.16593" ry="2.13246" fill="white"/>
<ellipse opacity="0.4" cx="512.53" cy="146.197" rx="1.16593" ry="2.13246" fill="white"/>
<ellipse opacity="0.4" cx="514.863" cy="228.297" rx="1.16593" ry="2.13246" fill="white"/>
<ellipse opacity="0.4" cx="461.813" cy="325.324" rx="1.16593" ry="2.13246" fill="white"/>
<ellipse opacity="0.4" cx="531.77" cy="294.403" rx="1.16593" ry="2.13246" fill="white"/>
<ellipse opacity="0.4" cx="592.981" cy="370.106" rx="1.16593" ry="2.13246" fill="white"/>
<ellipse opacity="0.4" cx="640.2" cy="407.423" rx="1.16593" ry="2.13246" fill="white"/>
<ellipse opacity="0.4" cx="679.842" cy="357.31" rx="1.16593" ry="2.13246" fill="white"/>
<ellipse opacity="0.4" cx="712.489" cy="374.371" rx="1.16593" ry="2.13246" fill="white"/>
<ellipse opacity="0.4" cx="684.507" cy="226.165" rx="1.16593" ry="2.13246" fill="white"/>
<ellipse opacity="0.4" cx="55.1299" cy="524.71" rx="1.9011" ry="2.13246" transform="rotate(-180 55.1299 524.71)" fill="white"/>
<ellipse opacity="0.4" cx="1.90109" cy="440.477" rx="1.9011" ry="2.13246" transform="rotate(-180 1.90109 440.477)" fill="white"/>
<ellipse opacity="0.4" cx="104.559" cy="435.145" rx="1.9011" ry="2.13246" transform="rotate(-180 104.559 435.145)" fill="white"/>
<ellipse opacity="0.4" cx="251.895" cy="450.074" rx="1.9011" ry="2.13246" transform="rotate(-180 251.895 450.074)" fill="white"/>
<ellipse opacity="0.4" cx="320.336" cy="504.451" rx="1.9011" ry="2.13246" transform="rotate(-180 320.336 504.451)" fill="white"/>
<ellipse opacity="0.4" cx="331.741" cy="388.232" rx="1.9011" ry="2.13246" transform="rotate(-180 331.741 388.232)" fill="white"/>
<ellipse opacity="0.4" cx="327.938" cy="306.132" rx="1.9011" ry="2.13246" transform="rotate(-180 327.938 306.132)" fill="white"/>
<ellipse opacity="0.4" cx="414.438" cy="209.104" rx="1.9011" ry="2.13246" transform="rotate(-180 414.438 209.104)" fill="white"/>
<ellipse opacity="0.4" cx="300.37" cy="240.025" rx="1.9011" ry="2.13246" transform="rotate(-180 300.37 240.025)" fill="white"/>
<ellipse opacity="0.4" cx="283.265" cy="115.277" rx="1.9011" ry="2.13246" transform="rotate(-180 283.265 115.277)" fill="white"/>
<ellipse opacity="0.4" cx="200.565" cy="164.323" rx="1.9011" ry="2.13246" transform="rotate(-180 200.565 164.323)" fill="white"/>
<ellipse opacity="0.4" cx="123.571" cy="127.005" rx="1.9011" ry="2.13246" transform="rotate(-180 123.571 127.005)" fill="white"/>
<ellipse opacity="0.4" cx="58.9344" cy="177.119" rx="1.9011" ry="2.13246" transform="rotate(-180 58.9344 177.119)" fill="white"/>
<ellipse opacity="0.4" cx="5.70153" cy="160.058" rx="1.9011" ry="2.13246" transform="rotate(-180 5.70153 160.058)" fill="white"/>
<ellipse opacity="0.4" cx="51.3281" cy="308.264" rx="1.9011" ry="2.13246" transform="rotate(-180 51.3281 308.264)" fill="white"/>
<ellipse opacity="0.4" cx="331.702" cy="411.565" rx="1.16593" ry="2.13246" transform="rotate(-180 331.702 411.565)" fill="white"/>
<ellipse opacity="0.4" cx="299.057" cy="327.332" rx="1.16593" ry="2.13246" transform="rotate(-180 299.057 327.332)" fill="white"/>
<ellipse opacity="0.4" cx="362.017" cy="322.001" rx="1.16593" ry="2.13246" transform="rotate(-180 362.017 322.001)" fill="white"/>
<ellipse opacity="0.4" cx="452.377" cy="336.929" rx="1.16593" ry="2.13246" transform="rotate(-180 452.377 336.929)" fill="white"/>
<ellipse opacity="0.4" cx="494.352" cy="391.306" rx="1.16593" ry="2.13246" transform="rotate(-180 494.352 391.306)" fill="white"/>
<ellipse opacity="0.4" cx="501.347" cy="275.087" rx="1.16593" ry="2.13246" transform="rotate(-180 501.347 275.087)" fill="white"/>
<ellipse opacity="0.4" cx="499.014" cy="192.988" rx="1.16593" ry="2.13246" transform="rotate(-180 499.014 192.988)" fill="white"/>
<ellipse opacity="0.4" cx="552.064" cy="95.9598" rx="1.16593" ry="2.13246" transform="rotate(-180 552.064 95.9598)" fill="white"/>
<ellipse opacity="0.4" cx="482.107" cy="126.881" rx="1.16593" ry="2.13246" transform="rotate(-180 482.107 126.881)" fill="white"/>
<ellipse opacity="0.4" cx="471.617" cy="2.13219" rx="1.16593" ry="2.13246" transform="rotate(-180 471.617 2.13219)" fill="white"/>
<ellipse opacity="0.4" cx="420.897" cy="51.1781" rx="1.16593" ry="2.13246" transform="rotate(-180 420.897 51.1781)" fill="white"/>
<ellipse opacity="0.4" cx="373.677" cy="13.8607" rx="1.16593" ry="2.13246" transform="rotate(-180 373.677 13.8607)" fill="white"/>
<ellipse opacity="0.4" cx="334.035" cy="63.974" rx="1.16593" ry="2.13246" transform="rotate(-180 334.035 63.974)" fill="white"/>
<ellipse opacity="0.4" cx="301.388" cy="46.9134" rx="1.16593" ry="2.13246" transform="rotate(-180 301.388 46.9134)" fill="white"/>
<ellipse opacity="0.4" cx="329.371" cy="195.119" rx="1.16593" ry="2.13246" transform="rotate(-180 329.371 195.119)" fill="white"/>
</svg>
