<svg width="747" height="444" viewBox="0 0 747 444" fill="none" xmlns="http://www.w3.org/2000/svg">
<circle opacity="0.4" cx="744.258" cy="21.3261" r="2.08213" fill="#D9D9D9"/>
<circle opacity="0.4" cx="631.823" cy="26.5318" r="2.08213" fill="#D9D9D9"/>
<circle opacity="0.4" cx="470.459" cy="11.9564" r="2.08213" fill="#D9D9D9"/>
<circle opacity="0.4" cx="383.008" cy="72.3383" r="2.08213" fill="#D9D9D9"/>
<circle opacity="0.4" cx="387.175" cy="152.501" r="2.08213" fill="#D9D9D9"/>
<circle opacity="0.4" cx="292.436" cy="247.238" r="2.08213" fill="#D9D9D9"/>
<circle opacity="0.4" cx="417.367" cy="217.047" r="2.08213" fill="#D9D9D9"/>
<circle opacity="0.4" cx="526.676" cy="290.963" r="2.08213" fill="#D9D9D9"/>
<circle opacity="0.4" cx="611.002" cy="327.4" r="2.08213" fill="#D9D9D9"/>
<circle opacity="0.4" cx="681.795" cy="278.47" r="2.08213" fill="#D9D9D9"/>
<circle opacity="0.4" cx="740.095" cy="295.127" r="2.08213" fill="#D9D9D9"/>
<circle opacity="0.4" cx="690.124" cy="150.419" r="2.08213" fill="#D9D9D9"/>
<circle opacity="0.4" cx="31.1234" cy="369.043" r="2.08213" transform="rotate(180 31.1234 369.043)" fill="#D9D9D9"/>
<circle opacity="0.4" cx="106.083" cy="422.137" r="2.08213" transform="rotate(180 106.083 422.137)" fill="#D9D9D9"/>
<circle opacity="0.4" cx="118.574" cy="308.661" r="2.08213" transform="rotate(180 118.574 308.661)" fill="#D9D9D9"/>
<circle opacity="0.4" cx="114.408" cy="228.499" r="2.08213" transform="rotate(180 114.408 228.499)" fill="#D9D9D9"/>
<circle opacity="0.4" cx="209.146" cy="133.762" r="2.08213" transform="rotate(180 209.146 133.762)" fill="#D9D9D9"/>
<circle opacity="0.4" cx="84.2158" cy="163.953" r="2.08213" transform="rotate(180 84.2158 163.953)" fill="#D9D9D9"/>
<circle opacity="0.4" cx="65.4821" cy="42.1482" r="2.08213" transform="rotate(180 65.4821 42.1482)" fill="#D9D9D9"/>
</svg>
